{"title":"Battledogs 2013 DVDRip XViD juggs","uid":8661479,"size":740440531,"categoryP":"video","categoryS":"movies","magnet":"?xt=urn:btih:85cd42b681f8e98c5062d41e6deba4b68001e624&amp;dn=Battledogs+2013+DVDRip+XViD+juggs&amp;tr=udp%3A%2F%2Ftracker.openbittorrent.com%3A80&amp;tr=udp%3A%2F%2Fopen.demonii.com%3A1337&amp;tr=udp%3A%2F%2Ftracker.coppersurfer.tk%3A6969&amp;tr=udp%3A%2F%2Fexodus.desync.com%3A6969","seeders":2,"leechers":1,"uploader":"juggs99","files":3,"time":1373323409,"description":" &lt;a href=&quot;http://www.imdb.com/title/tt2457138/&quot; rel=&quot;nofollow&quot; target=&quot;_NEW&quot;&gt;http://www.imdb.com/title/tt2457138/&lt;/a&gt;\n\n\nFormat: AVI\nFormat/Info: Audio Video Interleave\nFile size: 697 MiB\nDuration: 1h 28mn\nOverall bit rate: 1 101 Kbps\nWriting library: VirtualDub build 32842/release\n\nVideo\nID: 0\nFormat: MPEG-4 Visual\nFormat profile: Advanced Simple@L5\nFormat settings, BVOP: 2\nFormat settings, QPel: No\nFormat settings, GMC: No warppoints\nFormat settings, Matrix: Default (H.263)\nMuxing mode: Packed bitstream\nCodec ID: XVID\nCodec ID/Hint: XviD\nDuration: 1h 28mn\nBit rate: 964 Kbps\nWidth: 640 pixels\nHeight: 352 pixels\nDisplay aspect ratio: 16:9\nFrame rate: 23.976 fps\nColor space: YUV\nChroma subsampling: 4:2:0\nBit depth: 8 bits\nScan type: Progressive\nCompression mode: Lossy\nBits/(Pixel*Frame): 0.178\nStream size: 610 MiB (88%)\nWriting library: XviD 64\n\nAudio\nID: 1\nFormat: MPEG Audio\nFormat version: Version 1\nFormat profile: Layer 3\nCodec ID: 55\nCodec ID/Hint: MP3\nDuration: 1h 28mn\nBit rate mode: Constant\nBit rate: 128 Kbps\nChannel(s): 2 channels\nSampling rate: 48.0 KHz\nCompression mode: Lossy\nStream size: 81.0 MiB (12%)\nAlignment: Split accross interleaves\nInterleave, duration: 42 ms (1.00 video frame)\nInterleave, preload duration: 500 ms\nWriting library: LAME3.99r\n &lt;a href=&quot;\nhttp://img191.imageshack.us/img191/7485/sa0.png&quot; rel=&quot;nofollow&quot; target=&quot;_NEW&quot;&gt;\nhttp://img191.imageshack.us/img191/7485/sa0.png&lt;/a&gt; &lt;a href=&quot;\nhttp://img823.imageshack.us/img823/1725/lcr.png&quot; rel=&quot;nofollow&quot; target=&quot;_NEW&quot;&gt;\nhttp://img823.imageshack.us/img823/1725/lcr.png&lt;/a&gt; &lt;a href=&quot;\nhttp://img197.imageshack.us/img197/5013/hqe.png&quot; rel=&quot;nofollow&quot; target=&quot;_NEW&quot;&gt;\nhttp://img197.imageshack.us/img197/5013/hqe.png&lt;/a&gt;","torrent":{"xt":"urn:btih:85cd42b681f8e98c5062d41e6deba4b68001e624","amp;dn":"Battledogs+2013+DVDRip+XViD+juggs","amp;tr":["udp%3A%2F%2Ftracker.openbittorrent.com%3A80","udp%3A%2F%2Fopen.demonii.com%3A1337","udp%3A%2F%2Ftracker.coppersurfer.tk%3A6969","udp%3A%2F%2Fexodus.desync.com%3A6969"],"infoHash":"85cd42b681f8e98c5062d41e6deba4b68001e624","infoHashBuffer":{"type":"Buffer","data":[133,205,66,182,129,248,233,140,80,98,212,30,109,235,164,182,128,1,230,36]},"announce":[],"urlList":[]}}